<svg version="1.1" xmlns="http://www.w3.org/2000/svg" viewBox="0 0 1333.564732142857 2002.0753348214282" width="2667.129464285714" height="4004.1506696428564">
  <!-- svg-source:excalidraw -->
  
  <defs>
    <style>
      @font-face {
        font-family: "Virgil";
        src: url("https://excalidraw.com/Virgil.woff2");
      }
      @font-face {
        font-family: "Cascadia";
        src: url("https://excalidraw.com/Cascadia.woff2");
      }
    </style>
  </defs>
  <rect x="0" y="0" width="1333.564732142857" height="2002.0753348214282" fill="#ffffff"></rect><g stroke-linecap="round" transform="translate(1122.428013392857 40.97656250000001) rotate(0 100.568359375 73.640625)"><path d="M-0.17 -1.3 C56.57 -0.92, 111.67 1.05, 202.28 0.63 M0.46 -0.89 C74.91 -2.16, 147.75 -2.19, 200.53 -0.2 M200.12 0.33 C202.82 34.39, 203.32 68.09, 202.21 147.35 M201.12 0.82 C201.91 56.25, 201.02 114.71, 202 147.3 M201.08 148.11 C127.23 145.78, 50.1 147.67, -1.03 147.69 M201.74 147.93 C135.53 146.91, 70.7 147.46, -0.55 146.53 M-0.23 146.55 C-0.85 99.48, 0.49 54.86, -0.37 -0.68 M0.04 147.66 C-0.63 102.92, -1.01 60.59, -0.72 -0.78" stroke="#1864ab" stroke-width="1" fill="none"></path></g><g transform="translate(1138.996372767857 102.1171875) rotate(0 84 12.5)"><text x="84" y="18" font-family="Virgil, Segoe UI Emoji" font-size="20px" fill="#1864ab" text-anchor="middle" style="white-space: pre;" direction="ltr">Open Street Map</text></g><g stroke-linecap="round" transform="translate(622.309151785714 363.84114583333326) rotate(0 100.568359375 73.640625)"><path d="M0.72 -1.39 C71.39 -0.27, 142.49 -0.23, 201.1 0.04 M0.86 -0.37 C44.5 -1.46, 90.07 -0.76, 201.7 -0.53 M199.3 0.73 C203.76 51.87, 200.95 104.63, 202.68 147.1 M201.66 0.48 C201.15 55.36, 201.43 112.42, 201.11 146.58 M200.96 146.25 C128.89 147.25, 58.64 147.52, 1.27 148 M201.99 147.25 C131.6 146.55, 63.58 145.97, -0.33 147.3 M-1.54 148.04 C-2.05 114.23, -3.38 77.6, 1.16 1.34 M0.14 147.14 C-0.19 101.06, -1.19 54.7, 0.55 -0.02" stroke="#2b8a3e" stroke-width="4" fill="none"></path></g><g transform="translate(632.127511160714 424.98177083333326) rotate(0 91 12.5)"><text x="91" y="18" font-family="Virgil, Segoe UI Emoji" font-size="20px" fill="#2b8a3e" text-anchor="middle" style="white-space: pre;" direction="ltr">Python Web Server</text></g><g stroke-linecap="round" transform="translate(771.4722842261903 313.58277529761915) rotate(0 45.094866071428555 29.946986607142875)"><path d="M51.87 1.04 C60.45 1.32, 70.68 3.94, 76.86 7.98 C83.03 12.01, 87.38 19.21, 88.93 25.25 C90.47 31.3, 90.18 38.92, 86.15 44.26 C82.12 49.6, 72.73 54.81, 64.74 57.27 C56.74 59.74, 46.81 60.17, 38.19 59.04 C29.56 57.91, 19.33 54.68, 12.99 50.5 C6.64 46.32, 1.28 39.81, 0.11 33.97 C-1.06 28.13, 1.6 20.64, 5.97 15.45 C10.34 10.26, 17.97 5.23, 26.35 2.82 C34.73 0.42, 50.16 0.86, 56.25 1.03 C62.34 1.2, 62.84 3.4, 62.87 3.84 M54.75 -0.84 C63.36 -0.15, 72.87 5.07, 78.75 9.98 C84.63 14.88, 89.48 22.45, 90.04 28.6 C90.61 34.75, 86.73 42.02, 82.14 46.9 C77.56 51.77, 70.42 55.74, 62.53 57.87 C54.64 59.99, 43.57 61.29, 34.79 59.64 C26.01 57.99, 15.69 52.48, 9.86 47.99 C4.02 43.51, 0.15 38.76, -0.22 32.74 C-0.59 26.71, 2.59 16.81, 7.65 11.83 C12.71 6.86, 22.32 4.79, 30.14 2.88 C37.96 0.98, 50.5 0.79, 54.58 0.4 C58.67 0.02, 54.9 -0.07, 54.66 0.56" stroke="#1864ab" stroke-width="1" fill="none"></path></g><g transform="translate(783.0671502976188 330.678199404762) rotate(0 33.5 12.5)"><text x="33.5" y="18" font-family="Virgil, Segoe UI Emoji" font-size="20px" fill="#1864ab" text-anchor="middle" style="white-space: pre;" direction="ltr">OSMNX</text></g><g stroke-linecap="round"><g transform="translate(822.8363873475867 308.60493672679195) rotate(0 64.35604079815778 -59.228201510729775)"><path d="M1.13 -0.05 C22.35 -19.51, 107.35 -96.85, 128.45 -116.46 M0.27 -1.12 C21.3 -20.98, 106.84 -99.12, 127.96 -118.4" stroke="#000000" stroke-width="1" fill="none"></path></g><g transform="translate(822.8363873475867 308.60493672679195) rotate(0 64.35604079815778 -59.228201510729775)"><path d="M113.98 -90.35 C120.06 -102.28, 123.49 -113.52, 129.45 -118.43 M113.15 -91.24 C116.35 -97.44, 121.32 -103.56, 128.58 -119.34" stroke="#000000" stroke-width="1" fill="none"></path></g><g transform="translate(822.8363873475867 308.60493672679195) rotate(0 64.35604079815778 -59.228201510729775)"><path d="M100.14 -105.5 C111.74 -111.56, 120.65 -116.8, 129.45 -118.43 M99.3 -106.39 C105.79 -109.07, 113.96 -111.69, 128.58 -119.34" stroke="#000000" stroke-width="1" fill="none"></path></g></g><g stroke-linecap="round" transform="translate(945.8208705357142 144.15866815476184) rotate(0 98.76674107142856 29.94698660714286)"><path d="M114.57 0.56 C128.78 0.78, 144.81 3.91, 156.62 6.32 C168.43 8.73, 178.63 11.23, 185.44 15.04 C192.24 18.84, 197.1 24.68, 197.46 29.14 C197.81 33.59, 193.62 37.82, 187.57 41.76 C181.52 45.7, 172.53 49.94, 161.15 52.78 C149.77 55.62, 133.63 57.75, 119.28 58.81 C104.93 59.87, 89.03 60.03, 75.05 59.12 C61.07 58.22, 46.45 56.39, 35.38 53.36 C24.31 50.32, 14.46 45.12, 8.62 40.92 C2.78 36.73, -0.51 32.44, 0.34 28.19 C1.18 23.95, 6.64 19.19, 13.71 15.44 C20.78 11.69, 30.63 8.34, 42.76 5.71 C54.89 3.07, 74.27 0.35, 86.47 -0.36 C98.68 -1.07, 110.59 1.06, 115.98 1.44 C121.37 1.82, 119.1 1.48, 118.81 1.9 M81.41 1.47 C94.64 0.35, 111.85 -0.31, 125.87 0.63 C139.9 1.58, 154.89 3.98, 165.57 7.13 C176.26 10.29, 184.86 15.25, 189.97 19.57 C195.08 23.89, 197.31 28.81, 196.24 33.07 C195.17 37.34, 191.35 41.39, 183.56 45.14 C175.77 48.89, 162.33 53.02, 149.5 55.56 C136.67 58.09, 121.17 60.02, 106.59 60.33 C92.01 60.64, 75.29 59.26, 62.03 57.44 C48.77 55.61, 36.54 52.37, 27.03 49.36 C17.52 46.35, 9.32 43.51, 4.99 39.36 C0.65 35.21, -1.51 28.97, 1.02 24.47 C3.55 19.96, 11.27 16.08, 20.18 12.32 C29.08 8.56, 44.34 3.82, 54.47 1.9 C64.6 -0.01, 76.66 0.82, 80.96 0.82 C85.26 0.82, 79.84 1.41, 80.25 1.91" stroke="#1864ab" stroke-width="1" fill="none"></path></g><g transform="translate(987.9570312499998 162.25855654761904) rotate(0 63.5 12.5)"><text x="63.5" y="18" font-family="Virgil, Segoe UI Emoji" font-size="20px" fill="#1864ab" text-anchor="middle" style="white-space: pre;" direction="ltr">OverpassAPI</text></g><g stroke-linecap="round" transform="translate(295.6151585092475 456.91796874999994) rotate(0 169.1939088406142 51.301153273809575)"><path d="M134.5 1.21 C152.12 -0.94, 174.39 -0.58, 193.71 0.1 C213.04 0.77, 233.25 2.33, 250.45 5.27 C267.65 8.21, 284.12 13.21, 296.9 17.73 C309.68 22.25, 320.36 27.02, 327.15 32.4 C333.94 37.78, 337.44 44.04, 337.62 50 C337.81 55.96, 334.46 62.59, 328.25 68.14 C322.04 73.69, 312.52 78.67, 300.36 83.3 C288.2 87.92, 272.08 92.73, 255.29 95.91 C238.49 99.1, 218.62 101.37, 199.6 102.4 C180.59 103.43, 160.44 103.3, 141.2 102.08 C121.96 100.85, 101.27 97.9, 84.16 95.07 C67.05 92.24, 51.02 89.42, 38.56 85.1 C26.1 80.77, 15.72 74.97, 9.38 69.13 C3.03 63.28, 0.39 55.87, 0.5 50.03 C0.61 44.18, 3.31 39.49, 10.04 34.07 C16.76 28.64, 27.77 22.16, 40.84 17.46 C53.9 12.77, 71.16 8.63, 88.42 5.89 C105.69 3.14, 133.34 1.92, 144.41 0.99 C155.48 0.06, 154.49 -0.33, 154.84 0.29 M122.79 3.51 C139.59 1.06, 161.38 -1.08, 180.79 -0.76 C200.2 -0.44, 221.44 2.97, 239.26 5.44 C257.07 7.9, 274.1 9.92, 287.68 14.02 C301.25 18.12, 312.22 24.72, 320.71 30.02 C329.19 35.33, 336.4 40.01, 338.58 45.84 C340.77 51.68, 338.74 59.41, 333.84 65.05 C328.93 70.69, 320.38 74.84, 309.17 79.7 C297.97 84.57, 282.68 90.89, 266.61 94.23 C250.53 97.56, 231.62 98.13, 212.73 99.71 C193.83 101.29, 172.89 103.92, 153.25 103.69 C133.61 103.47, 112.32 101.12, 94.88 98.35 C77.44 95.58, 62.17 91.22, 48.6 87.09 C35.02 82.96, 21.38 78.9, 13.44 73.56 C5.5 68.23, 1.97 61.43, 0.98 55.09 C-0.01 48.74, 2.17 41.1, 7.49 35.49 C12.8 29.88, 21.21 25.98, 32.88 21.44 C44.54 16.89, 62.6 11.65, 77.48 8.22 C92.37 4.78, 114.56 1.91, 122.19 0.85 C129.82 -0.2, 122.65 0.98, 123.27 1.9" stroke="#2b8a3e" stroke-width="4" fill="none"></path></g><g transform="translate(364.37103567435486 488.52651497190465) rotate(0 112.20579831671807 21.413320289450013)"><text x="112.20579831671809" y="33.82664057890002" font-family="Virgil, Segoe UI Emoji" font-size="34.26131246312001px" fill="#2b8a3e" text-anchor="middle" style="white-space: pre;" direction="ltr">GraphQL API</text></g><g stroke-linecap="round" transform="translate(804.8790922619046 468.16796874999994) rotate(0 66.15792410714278 53.09988839285717)"><path d="M67.55 1.69 C90.11 17.37, 110.25 37.61, 131.67 52.2 M66.58 0.23 C90.66 19.38, 113.31 37.64, 132.31 53.35 M132.64 54.09 C108.2 72.99, 84.68 91.76, 65.71 105.1 M133.21 54.6 C110.02 72.21, 88.03 89.62, 66.68 105.21 M66.17 108.16 C42.05 85.98, 15.78 67.78, 1.97 52.02 M67.63 105.51 C48.11 92.74, 29.85 77.05, -0.67 54.72 M-1.74 52.98 C19.5 37.83, 39.71 21.66, 66.7 -1.93 M0.6 53.96 C24.11 34.52, 48.57 13.5, 67.97 0.96" stroke="#2b8a3e" stroke-width="1" fill="none"></path></g><g transform="translate(827.9418897103695 501.47658653368075) rotate(0 42.74914451582089 19.791270609176337)"><text x="42.74914451582087" y="13.791270609176333" font-family="Virgil, Segoe UI Emoji" font-size="15.83301648734106px" fill="#2b8a3e" text-anchor="middle" style="white-space: pre;" direction="ltr">Cache </text><text x="42.74914451582087" y="33.58254121835267" font-family="Virgil, Segoe UI Emoji" font-size="15.83301648734106px" fill="#2b8a3e" text-anchor="middle" style="white-space: pre;" direction="ltr">(e.g. Redis)</text></g><g stroke-opacity="0.3" fill-opacity="0.3" stroke-linecap="round" transform="translate(10 711.3588169642856) rotate(0 453.984375 640.3582589285713)"><path d="M-0.84 -0.99 C316.85 -0.22, 636.59 -0.32, 907.37 -0.61 M-0.51 0.54 C279.07 6.52, 557.61 6.58, 907.5 -0.15 M907.97 1.17 C914.33 381.87, 912.54 764.13, 906.67 1281.88 M907.52 0.34 C901.31 314.18, 900.77 629.4, 907.7 1281.21 M907.53 1282.16 C624.24 1274.6, 343.03 1273.91, -0.39 1282.15 M908.41 1280.35 C549.84 1277.59, 191.99 1276.82, -0.55 1280.62 M0.67 1281.42 C3.34 873.06, 4.24 466.02, -1.49 -1.07 M0.47 1280.44 C-6.91 780.33, -6.68 279.67, -0.35 0.02" stroke="#000000" stroke-width="1" fill="none"></path></g><g transform="translate(55.008928571428555 744.2847842261904) rotate(0 134.5 34.5)"><text x="0" y="18" font-family="Virgil, Segoe UI Emoji" font-size="20px" fill="#000000" text-anchor="start" style="white-space: pre;" direction="ltr">Apps consuming the API</text><text x="0" y="41" font-family="Virgil, Segoe UI Emoji" font-size="20px" fill="#000000" text-anchor="start" style="white-space: pre;" direction="ltr">(potential to grow an Ecosystem; </text><text x="0" y="64" font-family="Virgil, Segoe UI Emoji" font-size="20px" fill="#000000" text-anchor="start" style="white-space: pre;" direction="ltr">with feedback to the </text></g><g stroke-linecap="round"><g transform="translate(619.5576289436152 896.8109421943616) rotate(0 -68.69091245321067 -163.35737795950232)"><path d="M1.16 -0.1 C-21.84 -54.49, -114.19 -272.26, -137.36 -326.62 M0.31 -1.19 C-22.94 -55.44, -115.92 -271.54, -138.54 -325.54" stroke="#000000" stroke-width="1" fill="none"></path></g><g transform="translate(619.5576289436152 896.8109421943616) rotate(0 -68.69091245321067 -163.35737795950232)"><path d="M-118.23 -304.37 C-126.71 -312.7, -133.29 -317.63, -137.97 -326.52 M-118.34 -302.72 C-121.58 -307.69, -127.09 -314.09, -138.38 -324.68" stroke="#000000" stroke-width="1" fill="none"></path></g><g transform="translate(619.5576289436152 896.8109421943616) rotate(0 -68.69091245321067 -163.35737795950232)"><path d="M-137.11 -296.34 C-138.91 -307.69, -138.82 -315.45, -137.97 -326.52 M-137.22 -294.69 C-136.34 -301.48, -137.73 -309.64, -138.38 -324.68" stroke="#000000" stroke-width="1" fill="none"></path></g></g><g stroke-linecap="round" transform="translate(576.1188616071428 901.2157738095236) rotate(0 123.44503348214283 66.27363953339966)"><path d="M-0.84 -1.35 C52.25 0.93, 106.5 -1.41, 247.57 0.45 M-0.16 0.57 C79.26 -0.19, 158.68 0.21, 246.33 -0.48 M247.69 -0.23 C246.27 51.49, 244.36 100.58, 247.48 130.99 M246.54 -0.16 C248.06 38.55, 247.74 76.15, 247.8 132.48 M245.28 131.36 C152.05 131.77, 55.45 133.18, 1.16 132.1 M247.28 132.94 C180.51 131.19, 114.88 132.48, -0.38 131.88 M-0.76 134.15 C-0.09 80.89, -0.22 26.6, 1.91 -0.34 M-0.38 133.41 C0.32 102.97, -0.2 74.61, -0.21 -0.71" stroke="#2b8a3e" stroke-width="4" fill="none"></path></g><g transform="translate(605.2476098404071 958.6670668023448) rotate(0 94 23)"><text x="94" y="16" font-family="Virgil, Segoe UI Emoji" font-size="18.223558287266304px" fill="#2b8a3e" text-anchor="middle" style="white-space: pre;" direction="ltr"></text><text x="94" y="39" font-family="Virgil, Segoe UI Emoji" font-size="18.223558287266304px" fill="#2b8a3e" text-anchor="middle" style="white-space: pre;" direction="ltr">(Gatsby.JS Webpage)</text></g><g transform="translate(591.2399553571431 923.4975818452381) rotate(0 110.5 12.5)"><text x="0" y="18" font-family="Virgil, Segoe UI Emoji" font-size="20px" fill="#2b8a3e" text-anchor="start" style="white-space: pre;" direction="ltr">berlin.walkablecities.org</text></g><g stroke-linecap="round" transform="translate(511.98381696428567 1063.9110863095239) rotate(0 158.5119977678571 66.27363953339966)"><path d="M0.69 -0.66 C123.1 -0.63, 244.79 -0.45, 317.04 1.2 M0.6 0.36 C87.47 0.3, 176.01 -0.35, 317.32 -0.26 M318.72 0.72 C317.76 40.45, 317.05 78.91, 316.88 134.11 M317.17 -0.93 C316.66 44.12, 316.91 87.53, 316.75 132.72 M316.75 132.32 C195.58 131.53, 70.71 131.85, -0.07 133.94 M316.37 132.58 C236.93 130.92, 157.05 130.92, 0.31 132.99 M-1.21 133 C-2.89 78.26, 0.23 27.82, -0.22 -0.88 M0.19 132.21 C-0.31 99.29, 0.76 67.64, 0.75 -0.82" stroke="#2b8a3e" stroke-width="4" fill="none"></path></g><g transform="translate(548.80787769755 1120.062156088059) rotate(0 94 23)"><text x="94" y="16" font-family="Virgil, Segoe UI Emoji" font-size="18.223558287266304px" fill="#2b8a3e" text-anchor="middle" style="white-space: pre;" direction="ltr"></text><text x="94" y="39" font-family="Virgil, Segoe UI Emoji" font-size="18.223558287266304px" fill="#2b8a3e" text-anchor="middle" style="white-space: pre;" direction="ltr">(Gatsby.JS Webpage)</text></g><g transform="translate(534.800223214286 1084.8926711309523) rotate(0 142.5 12.5)"><text x="0" y="18" font-family="Virgil, Segoe UI Emoji" font-size="20px" fill="#2b8a3e" text-anchor="start" style="white-space: pre;" direction="ltr">sprengelkiez.walkablecities.org</text></g><g stroke-linecap="round" transform="translate(579.8902529761905 1563.6320684523812) rotate(0 123.44503348214283 66.27363953339966)"><path d="M1.26 -1.55 C70.92 -0.07, 144.44 2.28, 247.24 -1.42 M0.49 0.51 C67.46 -2.59, 136.78 -1.89, 246.89 0.52 M245.3 0.54 C244.14 36.42, 247.54 75.07, 246.87 133.98 M246.67 0.63 C247.02 38.31, 247.52 77.34, 246.84 131.85 M247.85 133.49 C162.75 132.81, 76.24 132.87, 1.13 133.33 M246.32 132.07 C160.55 133.23, 75.57 133.39, 0.22 133.09 M0.81 133.7 C1.69 79.19, -0.18 28.46, 1.18 -0.24 M-0.56 132.51 C-0.21 103.3, -0.33 72.68, 0.73 -0.74" stroke="#2b8a3e" stroke-width="1" fill="none"></path></g><g transform="translate(609.0190012094548 1621.0833614452022) rotate(0 94 23)"><text x="94" y="16" font-family="Virgil, Segoe UI Emoji" font-size="18.223558287266304px" fill="#2b8a3e" text-anchor="middle" style="white-space: pre;" direction="ltr"></text><text x="94" y="39" font-family="Virgil, Segoe UI Emoji" font-size="18.223558287266304px" fill="#2b8a3e" text-anchor="middle" style="white-space: pre;" direction="ltr">(Gatsby.JS Webpage)</text></g><g transform="translate(603.554873511905 1585.5567336309523) rotate(0 102.5 12.5)"><text x="0" y="18" font-family="Virgil, Segoe UI Emoji" font-size="20px" fill="#2b8a3e" text-anchor="start" style="white-space: pre;" direction="ltr">xyz.walkablecities.org</text></g><g stroke-linecap="round" transform="translate(514.7786458333333 1230.9451264880954) rotate(0 158.5119977678571 66.27363953339966)"><path d="M-1.33 0.75 C111.94 1.47, 224.33 -0.43, 316 -1.09 M-0.35 -0.57 C82.34 -0.38, 164.41 -0.01, 317.71 0.45 M318.74 -1.33 C313.8 40.9, 316.49 76.33, 317.86 133.59 M317.43 0.76 C318.02 28.57, 317.24 56.45, 317.71 133.44 M317.53 131.92 C248.2 131.57, 180.25 131.53, -0.98 133.26 M316.59 133.13 C234.93 135.3, 153.66 134.53, 0.54 132.13 M-1.17 133.2 C1.11 97.33, 0.18 62.07, 0.93 -1.5 M-0.23 131.7 C0.38 101.54, 0.26 71.32, -0.68 0.83" stroke="#2b8a3e" stroke-width="1" fill="none"></path></g><g transform="translate(551.6027065665976 1287.0961962666306) rotate(0 94 23)"><text x="94" y="16" font-family="Virgil, Segoe UI Emoji" font-size="18.223558287266304px" fill="#2b8a3e" text-anchor="middle" style="white-space: pre;" direction="ltr"></text><text x="94" y="39" font-family="Virgil, Segoe UI Emoji" font-size="18.223558287266304px" fill="#2b8a3e" text-anchor="middle" style="white-space: pre;" direction="ltr">(Gatsby.JS Webpage)</text></g><g transform="translate(562.4499627976193 1251.9267113095239) rotate(0 122.5 12.5)"><text x="0" y="18" font-family="Virgil, Segoe UI Emoji" font-size="20px" fill="#2b8a3e" text-anchor="start" style="white-space: pre;" direction="ltr">münchen.walkablecities.org</text></g><g stroke-linecap="round" transform="translate(580.7282366071428 1401.3394717261904) rotate(0 123.44503348214283 66.27363953339966)"><path d="M-0.08 1.62 C79.84 2.12, 159.67 -0.24, 246.55 -0.87 M0.66 -0.77 C82.72 -0.08, 164.57 0.06, 247.31 0.39 M248.53 -1 C249.13 35.76, 246.44 74.64, 248.04 131.63 M246.64 0.87 C245.73 43.48, 245.79 84.85, 247.48 132.94 M246.27 131.5 C169.1 134.22, 89.52 134.42, 0 132.39 M247.6 133.25 C156.34 133.55, 65.99 133.39, 0.13 131.74 M0.96 131.32 C-1.42 86.27, 1.4 43.39, 0.84 -0.43 M0.54 132.04 C-0.7 102, -1 70.38, 0.68 -0.16" stroke="#2b8a3e" stroke-width="1" fill="none"></path></g><g transform="translate(609.8569848404071 1458.7907647190118) rotate(0 94 23)"><text x="94" y="16" font-family="Virgil, Segoe UI Emoji" font-size="18.223558287266304px" fill="#2b8a3e" text-anchor="middle" style="white-space: pre;" direction="ltr"></text><text x="94" y="39" font-family="Virgil, Segoe UI Emoji" font-size="18.223558287266304px" fill="#2b8a3e" text-anchor="middle" style="white-space: pre;" direction="ltr">(Gatsby.JS Webpage)</text></g><g transform="translate(601.938929966518 1424.4855532244446) rotate(0 108.91040039062506 11.63572653745996)"><text x="0" y="16.271453074919872" font-family="Virgil, Segoe UI Emoji" font-size="18.6171624599359px" fill="#2b8a3e" text-anchor="start" style="white-space: pre;" direction="ltr">nairobi.walkablecities.org</text></g><g stroke-opacity="0.4" fill-opacity="0.4" stroke-linecap="round" transform="translate(469.8329613095241 804.8413318452374) rotate(0 205.765625 567.6210937500001)"><path d="M-0.63 0.55 C145.82 2.66, 295.23 1.24, 411.63 -0.6 M0.42 0.74 C144.01 1.97, 287.25 0.22, 410.74 0.17 M410.04 -0.84 C419.48 388.87, 418.72 776.57, 410.81 1135.6 M411.5 -0.3 C412.42 422.9, 413.89 846.57, 410.96 1135.98 M413.67 1136.49 C284.05 1137.25, 158.09 1136.34, 1.73 1136.44 M412.4 1134.88 C262.9 1138.56, 114.46 1138.97, -0.61 1134.66 M1.22 1134.05 C4.52 727.69, 2.27 317.04, 1.47 1.18 M-0.8 1135.78 C-5.26 881.91, -5.71 627.66, -0.07 0.22" stroke="#2b8a3e" stroke-width="1" fill="none"></path></g><g transform="translate(499.6610863095241 832.7944568452376) rotate(0 132 16)"><text x="0" y="25" font-family="Virgil, Segoe UI Emoji" font-size="28px" fill="#2b8a3e" text-anchor="start" style="white-space: pre;" direction="ltr">Walkable Cities Project</text></g><g stroke-opacity="0.4" fill-opacity="0.4" stroke-linecap="round" transform="translate(413.47098214285734 263.40904017857116) rotate(0 280.2890624999999 197.4453125)"><path d="M-1.17 0.94 C127.78 2.41, 252.43 2.59, 561.43 0.79 M0.77 0.37 C220.61 -0.4, 440.51 -0.56, 560.7 -0.75 M562.83 -2.22 C562.39 94.11, 566.06 192.32, 561.83 394.83 M560.72 -0.11 C560.34 96.7, 559.91 194.08, 560.5 395.22 M561.51 393.8 C417.72 391.91, 270.67 392.8, -0.44 394.34 M560.41 394.32 C369.72 395.84, 177.97 395.92, 0.1 395.69 M-1.95 396.13 C4.22 241.64, 2.91 88.44, -1.49 1.29 M0.6 394.49 C3.04 244.73, 2.46 93.41, 0.09 0.76" stroke="#2b8a3e" stroke-width="1" fill="none"></path></g><g stroke-opacity="0.4" fill-opacity="0.4" stroke-linecap="round" transform="translate(574.7056826636905 1727.6086309523812) rotate(0 109.31865641085153 58.68964530109167)"><path d="M-1.37 -1.1 C85.34 0.99, 168.81 3.19, 220.15 0.05 M0.23 -0.45 C73.76 -1.21, 149.16 -2.24, 218.8 0.46 M219.8 0.06 C219.57 26.84, 219.76 48.52, 216.72 116.41 M217.8 0.77 C217.33 31.91, 218.1 62.52, 218.34 116.38 M217.09 119.08 C151.67 119.69, 85.3 119.09, -0.81 118.23 M218.37 118.15 C155.06 116.86, 92.86 117.24, 0.62 116.79 M1.84 116.58 C0.9 90.18, -0.26 61.96, -0.08 -0.05 M-0.13 117.23 C-0.34 92.35, 0.25 67.03, 0.53 -0.16" stroke="#2b8a3e" stroke-width="1" fill="none"></path></g><g stroke-opacity="0.4" fill-opacity="0.4" stroke-linecap="round" transform="translate(588.4596210319493 1749.201207233737) rotate(0 109.31865641085153 58.68964530109167)"><path d="M1.2 -0.69 C46.77 2.72, 94.01 1.26, 219.34 -0.79 M-0.71 0.28 C82.92 0.22, 165.54 1.44, 217.88 -0.36 M220.06 1.86 C220.93 40.37, 217.4 82.67, 217.98 115.93 M218.18 0.57 C217.97 43.62, 217.36 86.53, 218.67 117.18 M218 118.73 C141.38 119.99, 64.65 120.09, -0.23 116.12 M217.77 117.26 C157.26 119.31, 97.25 118.47, -0.51 116.85 M0.18 118.53 C-2.06 81.86, -1.16 43.72, -1.79 0.29 M-0.17 117.05 C0.57 90.53, 0.68 65.43, -0.64 0.12" stroke="#2b8a3e" stroke-width="1" fill="none"></path></g><g stroke-opacity="0.4" fill-opacity="0.4" stroke-linecap="round" transform="translate(611.4428118062731 1774.2322681071582) rotate(0 109.31865641085153 58.68964530109167)"><path d="M0.52 1.51 C53.23 0.81, 104.13 -0.03, 220 0.46 M0.23 -0.75 C54.49 -0.15, 107.89 -0.97, 219.13 0.5 M220.25 -1.44 C217.56 34.62, 218.81 69.73, 220.09 115.71 M218.95 -0.15 C217.81 43.24, 218.13 88.28, 219.14 116.49 M217.96 118.13 C130.79 119.7, 44.35 117.6, -0.36 116.85 M218.27 117.64 C134.39 116.53, 48.39 116.58, 0.12 118.18 M-0.98 118.66 C-0.18 86.78, -1.9 56.57, -1.59 -0.26 M0.41 116.43 C0.73 83.73, -0.43 50.52, -0.82 -0.15" stroke="#2b8a3e" stroke-width="1" fill="none"></path></g><g transform="translate(387.2574404761906 221.88560267857127) rotate(0 166 22.5)"><text x="0" y="32" font-family="Virgil, Segoe UI Emoji" font-size="36px" fill="#2b8a3e" text-anchor="start" style="white-space: pre;" direction="ltr">Urban Metrics API</text></g><g stroke-opacity="0.4" fill-opacity="0.4" stroke-linecap="round" transform="translate(36.85379464285711 839.4780505952378) rotate(0 205.765625 52.907552083333485)"><path d="M-1.38 2.1 C102.67 0.17, 208.46 -0.21, 412.74 0.78 M-0.45 0.38 C160.18 -2.37, 320.73 -1.27, 412.04 -0.05 M412.11 3.4 C409.72 35.18, 410.56 73.31, 413.03 107.35 M412.32 -1.08 C410.04 30.87, 411.87 57.13, 410.36 106.95 M412.8 106.3 C295.41 101.23, 181.74 101.49, -2.13 103.74 M411.19 106.49 C295.28 103.18, 178.01 104.19, -0.16 105.41 M-0.96 108.67 C-1.68 82.92, -0.07 49.97, 1.14 -2.19 M-1.17 104.2 C0.61 70.04, -1 35.77, 1.66 0.03" stroke="#5c940d" stroke-width="1" fill="none"></path></g><g transform="translate(66.68191964285711 867.4311755952383) rotate(0 158.5 17.5)"><text x="0" y="25" font-family="Virgil, Segoe UI Emoji" font-size="28px" fill="#5c940d" text-anchor="start" style="white-space: pre;" direction="ltr">Some Research Project</text></g><g stroke-opacity="0.4" fill-opacity="0.4" stroke-linecap="round" transform="translate(37.189081101190595 1007.3003162202378) rotate(0 205.765625 52.907552083333485)"><path d="M-0.39 1.48 C129.35 1.45, 256.32 0.16, 412 -0.87 M-0.91 -0.3 C135.08 -1.22, 269.02 0.35, 412.28 0.57 M413.07 3.69 C411.27 31.38, 411.41 58.61, 412.94 107.24 M413.5 -1.09 C414.48 30.08, 414.12 58.71, 411.53 103.87 M413.43 104.5 C262.45 106.94, 116.64 107.8, -1.42 104.76 M411.51 105.27 C326.55 110.68, 240.27 109.58, -0.83 105.79 M-0.7 102.62 C0.38 74.83, 2.34 48.83, 0.75 -2.33 M-0.97 104.13 C-0.11 65.25, 0.78 27.45, -0.7 -0.26" stroke="#5c940d" stroke-width="1" fill="none"></path></g><g transform="translate(66.20991443452408 1035.2534412202383) rotate(0 166 17.5)"><text x="0" y="25" font-family="Virgil, Segoe UI Emoji" font-size="28px" fill="#5c940d" text-anchor="start" style="white-space: pre;" direction="ltr">Some Journalistic Essay</text></g><g stroke-opacity="0.4" fill-opacity="0.4" stroke-linecap="round" transform="translate(35.377557663690595 1161.5141834077378) rotate(0 205.765625 52.907552083333485)"><path d="M-0.96 -1.21 C107.88 -1.44, 211.14 0.36, 412.54 -0.41 M0.96 0.3 C109.06 3.34, 215.75 3.1, 411.37 -0.17 M410.55 -3.73 C407.06 27.89, 411.55 59.98, 414.45 106.93 M411.8 1.61 C412.2 26.61, 412.94 49.64, 410.56 105.96 M413.68 104.58 C281.98 106.24, 157.07 105.92, -1.73 104.99 M412.37 105.55 C255.65 101.62, 99.76 102.63, -0.79 105.06 M2.78 108.55 C-2.58 69.79, 3.86 43.28, 2.48 -0.74 M1.84 107.26 C0.27 74.37, -1.69 46.48, -0.02 1.22" stroke="#5c940d" stroke-width="1" fill="none"></path></g><g transform="translate(64.08589099702408 1189.1548084077383) rotate(0 137 17.5)"><text x="0" y="25" font-family="Virgil, Segoe UI Emoji" font-size="28px" fill="#5c940d" text-anchor="start" style="white-space: pre;" direction="ltr">Some local initiative</text></g><g stroke-opacity="0.4" fill-opacity="0.4" stroke-linecap="round" transform="translate(36.813104538690595 1325.4253162202378) rotate(0 205.765625 52.907552083333485)"><path d="M-0.89 -1.11 C131.85 -2.15, 267.51 -4.37, 410.49 -0.74 M0.69 0.31 C116.16 0.92, 233.96 0.24, 412.31 -0.94 M410.01 -3.73 C411.52 22.16, 408.82 42.01, 409.32 103.71 M413.52 1.52 C414.24 40.17, 413.15 77.36, 413.41 104.65 M409.92 105.2 C299.55 106.01, 189.47 105.52, -1.84 103.8 M412.53 106.77 C261.53 109.18, 112.13 108.08, -0.1 105.79 M-2.16 103.06 C1.8 74.58, -0.7 42.48, 3.69 -3.33 M0.36 103.99 C0.64 71.46, 0.87 38.31, -0.21 -1.12" stroke="#5c940d" stroke-width="1" fill="none"></path></g><g transform="translate(65.52143787202408 1353.0659412202383) rotate(0 160.5 17.5)"><text x="0" y="25" font-family="Virgil, Segoe UI Emoji" font-size="28px" fill="#5c940d" text-anchor="start" style="white-space: pre;" direction="ltr">Some other project xyz</text></g><g stroke-opacity="0.4" fill-opacity="0.4" stroke-linecap="round" transform="translate(44.762323288690595 1494.2290271577378) rotate(0 182.53933216695484 46.93548411635845)"><path d="M-0.48 1.65 C109.87 -3.21, 220.27 -0.39, 367.16 -0.41 M0.59 0.45 C85.18 -2.26, 169.88 -4.26, 364.55 0.33 M368.4 0.61 C368.71 16.33, 367.37 44.09, 368.3 93.28 M365.01 -0.31 C364.07 24.74, 366.01 52.74, 366.13 95.24 M363.6 94.69 C247.62 92.56, 127.14 89.2, -1.18 94.39 M363.96 93.84 C226.4 94.61, 86.33 94.09, 0.04 94.49 M-0.3 91.6 C3.37 73.47, 3.93 55.62, 1.95 2.75 M-0.82 92.34 C-2.58 55.95, -0.17 19.5, -0.04 0.17" stroke="#5c940d" stroke-width="1" fill="none"></path></g><g stroke-opacity="0.4" fill-opacity="0.4" stroke-linecap="round" transform="translate(57.99985554014799 1513.1280301724953) rotate(0 182.5393321669548 46.93548411635845)"><path d="M1.32 1.72 C82.27 2, 161.42 -1.93, 365.9 1.39 M-0.59 0.26 C140.25 3.54, 278.73 1.31, 365.05 1.17 M365.19 1.99 C362.67 24.45, 365.42 50.27, 362.81 96.85 M366.05 1.37 C368.58 26.27, 365.76 49.72, 363.54 92.23 M365.02 94.09 C273.47 91.28, 184.54 93.05, -2.11 92.07 M365.54 93.09 C267.69 91.13, 171.91 93.51, -0.04 93.84 M-0.05 91.34 C-1.75 63.32, 4.49 34.47, -0.99 2.17 M-1.02 95.36 C0.63 71.27, 1.87 49.43, -0.4 1.27" stroke="#5c940d" stroke-width="1" fill="none"></path></g><g stroke-opacity="0.4" fill-opacity="0.4" stroke-linecap="round" transform="translate(83.61725270478092 1534.647683387566) rotate(0 182.53933216695484 46.93548411635845)"><path d="M1.8 1.37 C128.26 2.3, 259.8 -1.96, 365.36 -0.35 M0.88 0.52 C93.83 1.42, 189.38 1.4, 366.1 0.92 M365.09 -1.47 C364.99 30.32, 364.13 54.38, 365.08 92.89 M366.96 -1.03 C365.05 29.89, 364.38 59.62, 365.61 93.57 M362.72 96.24 C266.11 91.7, 166.81 92.61, 1.65 93.88 M364.92 92.81 C236.33 91.55, 110.34 90.84, 0.85 94.54 M-2.37 90.88 C-2.51 71.57, 2.4 43.69, -2.34 -3.24 M1.14 92.1 C0.57 61.95, 1.47 34.45, 1.58 0.99" stroke="#5c940d" stroke-width="1" fill="none"></path></g><g stroke-linecap="round" transform="translate(553.9058779761904 10.000000000000007) rotate(0 100.568359375 73.640625)"><path d="M-1.34 -0.51 C62.24 -2.02, 124.31 -0.46, 201.94 1.18 M0.07 0.61 C61.29 1.32, 124.28 2.64, 201.63 0.18 M202.07 -0.77 C199.28 44.31, 200.4 86.96, 202.06 146.96 M201.6 0.34 C200.57 57.69, 201.96 114.01, 201.49 146.95 M201.39 147.2 C128.8 149.87, 58.09 149.91, 1.14 148.58 M200.67 147.69 C138.71 148.86, 75.13 148.67, -0.25 147.14 M-0.52 147.81 C0.72 99.85, 1.28 55.23, 1.53 1.24 M-0.76 148.04 C-1.09 91.89, -0.74 34.8, -0.61 0.96" stroke="#1864ab" stroke-width="1" fill="none"></path></g><g transform="translate(591.8843936011904 60.42447916666663) rotate(0 63 23)"><text x="63" y="18" font-family="Virgil, Segoe UI Emoji" font-size="20px" fill="#1864ab" text-anchor="middle" style="white-space: pre;" direction="ltr">Other potential </text><text x="63" y="41" font-family="Virgil, Segoe UI Emoji" font-size="20px" fill="#1864ab" text-anchor="middle" style="white-space: pre;" direction="ltr">data sources</text></g><g stroke-linecap="round" transform="translate(947.5526413690479 56.124813988095156) rotate(0 98.76674107142856 29.94698660714286)"><path d="M68.35 2.24 C81.14 0.5, 98.62 -0.82, 113.31 -0.42 C128 -0.03, 144.41 1.98, 156.5 4.63 C168.59 7.28, 179.11 11.51, 185.86 15.48 C192.61 19.45, 196.43 23.98, 196.98 28.45 C197.54 32.92, 195.05 38.12, 189.19 42.29 C183.33 46.45, 173.24 50.76, 161.82 53.44 C150.4 56.13, 135.22 57.5, 120.67 58.39 C106.12 59.29, 88.6 59.62, 74.52 58.82 C60.44 58.02, 47.22 56.49, 36.19 53.6 C25.15 50.71, 14.28 45.66, 8.31 41.5 C2.35 37.34, -0.45 33.11, 0.4 28.65 C1.25 24.2, 6.45 18.83, 13.42 14.77 C20.4 10.71, 32.46 6.52, 42.24 4.3 C52.02 2.08, 66.74 2, 72.09 1.44 C77.44 0.89, 73.83 0.37, 74.33 0.96 M119.01 1.91 C132.66 2.38, 148.33 3.06, 160.04 5.74 C171.76 8.42, 183.02 14.03, 189.32 17.99 C195.61 21.95, 198.49 25.16, 197.83 29.5 C197.17 33.84, 192.09 39.86, 185.37 44.05 C178.65 48.24, 169.38 51.94, 157.51 54.63 C145.64 57.32, 128.93 59.34, 114.16 60.21 C99.39 61.07, 82.88 61.36, 68.88 59.83 C54.88 58.29, 40.81 54.08, 30.15 51.01 C19.49 47.95, 9.78 45.64, 4.94 41.42 C0.11 37.2, -0.87 30.16, 1.14 25.69 C3.15 21.23, 9.19 18.45, 17.01 14.62 C24.83 10.8, 35.85 5.12, 48.06 2.77 C60.26 0.41, 78.2 0.91, 90.24 0.51 C102.27 0.11, 115.55 0.09, 120.28 0.37 C125.01 0.64, 119.27 1.59, 118.61 2.14" stroke="#1864ab" stroke-width="1" fill="none"></path></g><g transform="translate(980.0989583333335 74.22470238095234) rotate(0 63.5 11.5)"><text x="63.5" y="18" font-family="Virgil, Segoe UI Emoji" font-size="20px" fill="#1864ab" text-anchor="middle" style="white-space: pre;" direction="ltr">Nominatim API</text></g><g stroke-linecap="round"><g transform="translate(814.50258922299 312.6138320971375) rotate(0 66.67689814802048 -106.69600369503591)"><path d="M0.47 -0.65 C22.63 -36.02, 111.76 -177.7, 134.1 -213.3 M-0.74 1.62 C21.23 -33.98, 111 -179.24, 133.51 -215.01" stroke="#000000" stroke-width="1" fill="none"></path></g><g transform="translate(814.50258922299 312.6138320971375) rotate(0 66.67689814802048 -106.69600369503591)"><path d="M126.23 -184.51 C131.32 -195.4, 132.19 -210.42, 135.43 -217 M128.16 -185.69 C128.89 -193.75, 131.82 -202.67, 134.31 -214.56" stroke="#000000" stroke-width="1" fill="none"></path></g><g transform="translate(814.50258922299 312.6138320971375) rotate(0 66.67689814802048 -106.69600369503591)"><path d="M108.81 -195.36 C120.65 -202.05, 128.36 -212.81, 135.43 -217 M110.74 -196.54 C116.43 -201.49, 124.37 -207.29, 134.31 -214.56" stroke="#000000" stroke-width="1" fill="none"></path></g></g><g stroke-linecap="round"><g transform="translate(788.1659513994214 313.1264333761592) rotate(0 -25.021467262114868 -78.37784734337235)"><path d="M1.32 -0.41 C-6.99 -25.7, -40.75 -126.86, -49.13 -152.07 M-1.41 -3.1 C-10.16 -29.19, -43.15 -130.82, -51.36 -156.35" stroke="#000000" stroke-width="1" fill="none"></path></g><g transform="translate(788.1659513994214 313.1264333761592) rotate(0 -25.021467262114868 -78.37784734337235)"><path d="M-33.5 -132.68 C-36.96 -140.01, -42.4 -148.59, -54.93 -155.73 M-31.41 -132.11 C-38 -140.37, -46.79 -148.76, -50.62 -157.18" stroke="#000000" stroke-width="1" fill="none"></path></g><g transform="translate(788.1659513994214 313.1264333761592) rotate(0 -25.021467262114868 -78.37784734337235)"><path d="M-53.03 -126.36 C-50.1 -135.94, -49.16 -146.58, -54.93 -155.73 M-50.93 -125.79 C-51.51 -136.33, -54.17 -146.71, -50.62 -157.18" stroke="#000000" stroke-width="1" fill="none"></path></g></g></svg>